HIERARCHY
ROOT Hips
{
	OFFSET 0.000000 0.000000 0.000000 
	CHANNELS 6 Xposition Yposition Zposition Zrotation Yrotation Xrotation
	JOINT LeftUpLeg
	{
		OFFSET 1.363060 -1.794630 0.839290 
		CHANNELS 3 Zrotation Yrotation Xrotation
		JOINT LeftLeg
		{
			OFFSET 2.448110 -6.726130 0.000000 
			CHANNELS 3 Zrotation Yrotation Xrotation
			JOINT LeftFoot
			{
				OFFSET 2.562200 -7.039590 0.000000 
				CHANNELS 3 Zrotation Yrotation Xrotation
				JOINT LeftToeBase
				{
					OFFSET 0.157640 -0.433110 2.322550 
					CHANNELS 3 Zrotation Yrotation Xrotation
					End Site
					{
						OFFSET 0.000000 0.000000 0.000000 
					}
				}
			}
		}
	}
	JOINT RightUpLeg
	{
		OFFSET -1.305520 -1.794630 0.839290 
		CHANNELS 3 Zrotation Yrotation Xrotation
		JOINT RightLeg
		{
			OFFSET -2.542530 -6.985550 0.000000 
			CHANNELS 3 Zrotation Yrotation Xrotation
			JOINT RightFoot
			{
				OFFSET -2.568260 -7.056230 0.000000 
				CHANNELS 3 Zrotation Yrotation Xrotation
				JOINT RightToeBase
				{
					OFFSET -0.164730 -0.452590 2.363150 
					CHANNELS 3 Zrotation Yrotation Xrotation
					End Site
					{
						OFFSET 0.000000 0.000000 0.000000 
					}
				}
			}
		}
	}
	JOINT Spine
	{
		OFFSET 0.028270 2.035590 -0.193380 
		CHANNELS 3 Zrotation Yrotation Xrotation
		JOINT Spine1
		{
			OFFSET 0.056720 2.048850 -0.042750 
			CHANNELS 3 Zrotation Yrotation Xrotation
			JOINT Neck1
			{
				OFFSET -0.054170 1.746240 0.172020 
				CHANNELS 3 Zrotation Yrotation Xrotation
				JOINT Head
				{
					OFFSET 0.104070 1.761360 -0.123970 
					CHANNELS 3 Zrotation Yrotation Xrotation
					End Site
					{
						OFFSET 0.000000 0.000000 0.000000 
					}
				}
			}
			JOINT LeftArm
			{
				OFFSET 3.362410 1.200890 -0.311210 
				CHANNELS 3 Zrotation Yrotation Xrotation
				JOINT LeftForeArm
				{
					OFFSET 4.983000 -0.000000 -0.000000 
					CHANNELS 3 Zrotation Yrotation Xrotation
					JOINT LeftHand
					{
						OFFSET 3.483560 -0.000000 -0.000000 
						CHANNELS 3 Zrotation Yrotation Xrotation
						JOINT LeftHandIndex1
						{
							OFFSET 0.715260 -0.000000 -0.000000 
							CHANNELS 3 Zrotation Yrotation Xrotation
							End Site
							{
								OFFSET 0.000000 0.000000 0.000000 
							}
						}
					}
				}
			}
			JOINT RightArm
			{
				OFFSET -3.136600 1.374050 -0.404650 
				CHANNELS 3 Zrotation Yrotation Xrotation
				JOINT RightForeArm
				{
					OFFSET -5.241900 -0.000000 -0.000000 
					CHANNELS 3 Zrotation Yrotation Xrotation
					JOINT RightHand
					{
						OFFSET -3.444170 -0.000000 -0.000000 
						CHANNELS 3 Zrotation Yrotation Xrotation
						JOINT RightHandIndex1
						{
							OFFSET -0.622530 -0.000000 -0.000000 
							CHANNELS 3 Zrotation Yrotation Xrotation
							End Site
							{
								OFFSET 0.000000 0.000000 0.000000 
							}
						}
					}
				}
			}
		}
	}
}
MOTION
Frames: 13
Frame Time: 0.041667
0.770051 18.778500 9.027294 -10.220163 5.533391 27.906849 12.156028 -60.202245 -10.772330 -2.783314 -3.582152 -6.030337 -6.866771 37.726184 -47.513391 4.876300 13.243100 40.285500 9.508018 41.221115 -18.427786 3.350384 0.792228 -2.917710 11.979560 -35.773239 -10.269834 -1.122900 -6.731000 18.920800 22.407014 -5.230066 32.151620 -4.562482 -1.242729 -17.096148 11.233574 -2.831396 -9.217158 2.234600 -1.854400 1.366300 73.547210 -47.345908 -170.399051 1.639344 -8.121540 2.542467 -0.408178 6.306696 86.430562 -7.125000 0.000000 0.000000 -85.872677 52.442803 -135.082243 -3.467077 16.730070 1.318624 2.461066 3.022727 68.770728 7.125000 0.000000 0.000000 
0.776898 18.773338 9.020131 -10.051944 5.685479 28.149825 12.461828 -60.276295 -11.135668 -2.753220 -3.640181 -6.196506 -6.523764 37.034921 -47.607179 5.075400 13.468200 41.147600 9.220805 41.018876 -18.757719 3.346531 0.788344 -2.964406 11.961124 -35.720601 -10.335161 -1.158500 -6.833300 19.222400 22.237537 -5.117900 32.213614 -4.600124 -1.197104 -17.256060 11.019712 -2.927238 -9.218975 2.135300 -1.902400 1.370400 73.705059 -47.160444 -170.150352 1.613001 -8.124422 2.530848 -0.527372 6.262405 86.018264 -7.125000 0.000000 0.000000 -85.176092 52.010990 -134.281559 -3.613617 16.773445 1.224667 2.434750 2.933969 69.014836 7.125000 0.000000 0.000000 
0.784272 18.770599 9.015707 -9.877669 5.912130 28.409678 12.769814 -60.401888 -11.514679 -2.723409 -3.686062 -6.311831 -6.100266 36.195948 -47.767572 5.311300 13.726100 42.151000 8.933975 40.768704 -19.087144 3.342321 0.784466 -3.035019 12.005813 -35.839221 -10.329496 -1.158400 -6.833000 19.221500 22.396370 -5.168202 32.129137 -4.537802 -1.197263 -17.342433 11.069859 -2.852763 -9.604755 2.162300 -1.893200 1.229600 73.507386 -46.893760 -169.625881 1.619167 -8.115695 2.479956 -0.626153 6.209771 85.624811 -7.125000 0.000000 0.000000 -85.824758 51.725514 -139.309121 -3.117384 15.815182 1.401145 2.669327 2.764914 73.107540 7.125000 0.000000 0.000000 
0.792489 18.768598 9.011072 -9.751663 6.170811 28.699104 13.219628 -60.517791 -12.073281 -2.690073 -3.692757 -6.396283 -5.917787 35.804963 -47.812149 5.415600 13.837100 42.588800 8.675317 40.516366 -19.445627 3.337141 0.775808 -3.108194 12.061167 -36.000391 -10.301507 -1.123800 -6.733900 18.929300 22.748691 -5.261359 31.852294 -4.472954 -1.245810 -17.397373 10.318661 -2.702677 -9.965999 1.917000 -1.846900 1.029000 73.283700 -46.732273 -169.344355 1.632013 -8.089142 2.451773 -0.601463 6.202715 85.675511 -7.125000 0.000000 0.000000 -85.606959 51.532969 -138.849322 -3.185334 15.921874 1.346594 2.641444 2.754757 72.875001 7.125000 0.000000 0.000000 
0.799652 18.766702 9.006437 -9.652431 6.368440 28.928053 13.718747 -60.611991 -12.671854 -2.656023 -3.670352 -6.474936 -5.988176 35.915628 -47.749053 5.389000 13.809000 42.477500 8.536932 40.301138 -19.708964 3.336567 0.773588 -3.151460 12.062864 -36.014702 -10.311976 -1.105500 -6.680600 18.772500 22.623194 -5.261216 31.943325 -4.371358 -1.254545 -17.502529 9.166191 -2.960900 -8.947389 1.515100 -1.895300 1.376700 73.291824 -46.461270 -169.358724 1.631476 -8.104105 2.451628 -0.595123 6.200283 85.979716 -7.125000 0.000000 0.000000 -84.852510 51.060745 -136.042709 -3.480299 16.310717 1.199330 2.515990 2.755762 70.913026 7.125000 0.000000 0.000000 
0.805867 18.764911 9.003487 -9.640814 6.578517 29.096847 14.189152 -60.684642 -13.155450 -2.627239 -3.651674 -6.542005 -6.086827 36.095745 -47.695173 5.371500 13.790300 42.404000 8.504530 40.126227 -19.910422 3.339021 0.775744 -3.183528 12.022663 -35.924272 -10.379222 -1.129500 -6.750300 18.977700 22.707399 -5.209392 31.983155 -4.371233 -1.222366 -17.516861 8.424372 -3.097989 -8.585316 1.278800 -1.936300 1.510500 73.493241 -46.288284 -169.957998 1.606545 -8.107478 2.470303 -0.650863 6.188033 86.356677 -7.125000 0.000000 0.000000 -84.256113 50.619115 -134.440283 -3.616949 16.388814 1.130539 2.455624 2.732254 69.970503 7.125000 0.000000 0.000000 
0.812083 18.762172 9.001696 -9.682124 6.788909 29.266797 14.664746 -60.726203 -13.613089 -2.600481 -3.626253 -6.576341 -6.139390 36.184423 -47.667900 5.368500 13.787100 42.391200 8.495136 39.984592 -20.113017 3.339948 0.777155 -3.221828 11.985313 -35.853346 -10.411343 -1.153900 -6.820200 19.183800 22.974257 -5.189710 31.938987 -4.370924 -1.193215 -17.476002 8.100392 -3.115402 -8.742380 1.184200 -1.952700 1.475400 73.589033 -46.089436 -170.394782 1.585135 -8.101067 2.472583 -0.651505 6.181446 86.599684 -7.125000 0.000000 0.000000 -83.837232 50.218212 -132.995992 -3.738889 16.498760 1.073401 2.399806 2.728298 69.133844 7.125000 0.000000 0.000000 
0.819456 18.758906 9.001170 -9.655224 6.994830 29.423096 14.960663 -60.796230 -13.955228 -2.581785 -3.617097 -6.609954 -6.130689 36.140482 -47.640103 5.383900 13.803500 42.455900 8.403114 39.810551 -20.265791 3.338459 0.785256 -3.282241 11.962620 -35.805485 -10.375736 -1.168300 -6.861200 19.304900 23.383925 -5.279917 31.642151 -4.300645 -1.234649 -17.514309 7.557127 -2.975819 -9.335434 1.013500 -1.921500 1.220700 73.346587 -45.994671 -170.037288 1.605853 -8.114575 2.437798 -0.552577 6.181554 86.864807 -7.125000 0.000000 0.000000 -83.496041 50.031811 -130.492245 -3.966812 16.872935 0.984937 2.297262 2.781514 67.156274 7.125000 0.000000 0.000000 
0.827989 18.755957 9.002223 -9.599596 7.197027 29.565439 15.147270 -60.882367 -14.211047 -2.568682 -3.618170 -6.645714 -6.113990 36.065042 -47.589973 5.422900 13.844800 42.619100 8.273711 39.619345 -20.380542 3.338238 0.807980 -3.368826 11.925033 -35.702747 -10.420285 -1.222200 -7.012200 19.751500 23.751609 -5.425574 31.169922 -4.258686 -1.343324 -17.702325 7.034726 -2.773310 -9.939366 0.836700 -1.860100 0.899900 72.944381 -46.136788 -168.432379 1.655864 -8.156679 2.373549 -0.528521 6.153642 86.192263 -7.125000 0.000000 0.000000 -83.945712 50.106371 -131.579390 -3.797400 16.612228 1.067934 2.340079 2.786345 67.461238 7.125000 0.000000 0.000000 
0.836101 18.754377 9.004646 -9.575806 7.313222 29.668423 15.350192 -60.922709 -14.402330 -2.551239 -3.623169 -6.696302 -6.061065 35.921464 -47.574319 5.467400 13.891600 42.805000 8.255736 39.491756 -20.448613 3.341096 0.833237 -3.435149 11.905702 -35.652630 -10.449532 -1.276000 -7.159100 20.187600 23.601986 -5.425883 31.294842 -4.255877 -1.348815 -17.881684 7.463109 -2.879451 -8.540420 0.941000 -1.825800 1.412000 72.984779 -46.017304 -167.416666 1.647646 -8.212866 2.352006 -0.666284 6.108940 85.007071 -7.125000 0.000000 0.000000 -83.834022 49.711484 -131.272123 -3.791678 16.483074 1.059874 2.345580 2.738744 67.409268 7.125000 0.000000 0.000000 
0.844107 18.753534 9.008965 -9.591814 7.415949 29.772622 15.461372 -60.908885 -14.449603 -2.538109 -3.667179 -6.782506 -5.860456 35.479286 -47.630099 5.579900 14.008500 43.271500 8.237048 39.426720 -20.546845 3.339370 0.835457 -3.474102 11.930731 -35.737693 -10.394832 -1.267200 -7.135200 20.116400 23.731936 -5.421828 31.174584 -4.319635 -1.355121 -17.998823 8.163119 -2.802307 -7.894077 1.175800 -1.748500 1.627600 72.996307 -46.060682 -166.344258 1.653921 -8.264634 2.347796 -0.805509 6.082131 83.915747 -7.125000 0.000000 0.000000 -83.862444 49.693330 -131.498251 -3.775080 16.435183 1.062267 2.364272 2.713277 67.686058 7.125000 0.000000 0.000000 
0.855062 18.749531 9.009913 -10.048001 7.717559 29.711101 15.915092 -60.873974 -14.421704 -2.518387 -3.679291 -6.819697 -5.977759 35.616808 -47.522215 5.565400 13.993600 43.211600 8.894549 39.452916 -20.417844 3.356932 0.858458 -3.498618 11.932647 -35.829322 -10.419245 -1.228300 -7.029000 19.801200 24.095920 -5.472114 30.974401 -4.615207 -1.456409 -18.063268 8.820360 -2.732231 -7.403892 1.398200 -1.685300 1.777800 72.815201 -46.013984 -165.263705 1.668911 -8.299252 2.347394 -0.815625 6.102637 83.348768 -7.125000 0.000000 0.000000 -84.045017 49.770600 -131.996452 -3.779565 16.491012 1.062515 2.382955 2.701824 68.127892 7.125000 0.000000 0.000000 
0.868441 18.742262 9.006542 -10.984196 8.319860 29.456365 16.781597 -60.869514 -14.347075 -2.490046 -3.654260 -6.801027 -6.476909 36.472409 -47.247922 5.360100 13.778200 42.356200 10.320623 39.528351 -20.038325 3.394619 0.893037 -3.486279 11.881988 -35.855670 -10.552765 -1.210600 -6.979900 19.655800 25.042331 -5.556597 30.460604 -5.145048 -1.639562 -18.065602 8.910008 -2.609342 -7.943977 1.457200 -1.667100 1.538900 72.597527 -45.995783 -164.953890 1.668232 -8.303062 2.338145 -0.760124 6.125201 83.465621 -7.125000 0.000000 0.000000 -84.259628 49.947568 -132.310932 -3.786726 16.595067 1.065994 2.388484 2.720671 68.306501 7.125000 0.000000 0.000000 
